<svg width="80" height="60" viewBox="0 0 80 60" fill="none" xmlns="http://www.w3.org/2000/svg">
<path fill-rule="evenodd" clip-rule="evenodd" d="M22.8334 44.375C20.1871 44.375 18.0417 46.5203 18.0417 49.1667C18.0417 51.813 20.1871 53.9583 22.8334 53.9583C25.4798 53.9583 27.6251 51.813 27.6251 49.1667C27.6251 46.5203 25.4798 44.375 22.8334 44.375ZM12.2917 49.1667C12.2917 43.3447 17.0114 38.625 22.8334 38.625C28.6554 38.625 33.3751 43.3447 33.3751 49.1667C33.3751 54.9887 28.6554 59.7083 22.8334 59.7083C17.0114 59.7083 12.2917 54.9887 12.2917 49.1667Z" fill="#317AE8"/>
<path fill-rule="evenodd" clip-rule="evenodd" d="M61.1667 44.375C58.5203 44.375 56.375 46.5203 56.375 49.1667C56.375 51.813 58.5203 53.9583 61.1667 53.9583C63.813 53.9583 65.9583 51.813 65.9583 49.1667C65.9583 46.5203 63.813 44.375 61.1667 44.375ZM50.625 49.1667C50.625 43.3447 55.3447 38.625 61.1667 38.625C66.9887 38.625 71.7083 43.3447 71.7083 49.1667C71.7083 54.9887 66.9887 59.7083 61.1667 59.7083C55.3447 59.7083 50.625 54.9887 50.625 49.1667Z" fill="#317AE8"/>
<path fill-rule="evenodd" clip-rule="evenodd" d="M1.03518 2.00901C1.49427 0.965399 2.52668 0.291672 3.66681 0.291672H45.8335C47.4213 0.291672 48.7085 1.57885 48.7085 3.16667V4.125H65.0001C66.01 4.125 66.9459 4.65486 67.4654 5.52083L78.9411 24.647C79.0849 24.8775 79.197 25.1298 79.2712 25.3978C79.3459 25.6666 79.3799 25.9415 79.3751 26.214V49.1667C79.3751 50.7545 78.088 52.0417 76.5001 52.0417H68.8335C68.071 52.0417 67.3397 51.7388 66.8005 51.1996L48.7085 33.1075V46.2917H53.5001C55.088 46.2917 56.3751 47.5788 56.3751 49.1667C56.3751 50.7545 55.088 52.0417 53.5001 52.0417H45.8596C45.8426 52.0418 45.8256 52.0418 45.8086 52.0417H30.5001C28.9123 52.0417 27.6251 50.7545 27.6251 49.1667C27.6251 47.5788 28.9123 46.2917 30.5001 46.2917H39.2979L1.54749 5.10938C0.777074 4.26893 0.576092 3.05263 1.03518 2.00901ZM42.9585 41.7756L10.2024 6.04167H42.9585V26.1442C42.9584 26.1588 42.9584 26.1733 42.9585 26.1879V41.7756ZM52.7743 29.0417L70.0243 46.2917H73.6251V29.0417H52.7743ZM71.4223 23.2917H48.7085V9.875H63.3723L71.4223 23.2917ZM6.8396 31.0352C8.13729 30.7289 9.47532 31.355 10.0716 32.5476L17.7383 47.8809C18.1839 48.7721 18.1363 49.8305 17.6124 50.6781C17.0886 51.5257 16.1632 52.0417 15.1668 52.0417H7.50014C5.91232 52.0417 4.62514 50.7545 4.62514 49.1667V33.8333C4.62514 32.5 5.54191 31.3416 6.8396 31.0352ZM10.3751 46.012V46.2917H10.515L10.3751 46.012Z" fill="#317AE8"/>
<path fill-rule="evenodd" clip-rule="evenodd" d="M4.625 18.5C4.625 16.9122 5.91218 15.625 7.5 15.625H22.8333C24.4212 15.625 25.7083 16.9122 25.7083 18.5C25.7083 20.0878 24.4212 21.375 22.8333 21.375H7.5C5.91218 21.375 4.625 20.0878 4.625 18.5Z" fill="#317AE8"/>
</svg>
